<svg width="520" height="547" viewBox="0 0 520 547" fill="none" xmlns="http://www.w3.org/2000/svg">
<path d="M471.895 416.174C462.927 371.714 450.638 328.376 434.642 285.925C429.328 271.822 408.431 277.459 409.392 292.023C410.153 303.534 411.334 314.954 412.702 326.341C397.304 303.497 380.586 281.556 362.207 261.044C344.947 241.78 324.84 223.466 300.537 214.965C297.08 144.638 263.969 58.4027 184.757 48.1273C94.9178 36.4634 46.3744 144.572 50.141 218.95C50.4826 225.744 61.453 226.183 62.1927 219.336C68.8669 157.691 104.954 56.2684 185.386 71.1649C246.461 82.4822 272.869 150.812 276.212 210.133C245.366 208.567 217.518 224.398 206.732 253.991C198.71 276.013 195.727 321.99 216.184 338.688C238.315 356.747 269.242 326.837 280.579 309.16C293.165 289.525 298.725 266.279 300.335 242.997C328.473 256.083 349.475 285.032 367.732 308.673C388.993 336.201 407.724 365.393 424.673 395.729C411.407 392.489 398.141 389.25 384.872 386.012C368.495 382.016 364.297 407.814 380.542 411.794C405.928 418.01 431.321 424.232 456.704 430.451C464.458 432.347 473.52 424.21 471.9 416.181L471.895 416.174ZM228.327 304.769C221.742 293.663 227.658 270.317 232.675 259.696C241.234 241.555 258.177 234.857 276.176 236.332C275.982 239.487 275.733 242.601 275.403 245.62C274.118 257.175 249.354 340.239 228.328 304.77L228.327 304.769Z" fill="#A5A9AF"/>
</svg>
