<svg width="791" height="788" viewBox="0 0 791 788" fill="none" xmlns="http://www.w3.org/2000/svg">
<path d="M647.719 427.122C447.243 457.947 244.773 448.366 43.2627 395.742C29.9211 393.785 17.3875 384.352 11.2526 371.608C7.3417 363.439 5.7448 346.316 19.319 348.356C220.912 398.211 423.425 410.091 623.776 379.737C644.371 378.842 676.059 425.806 647.719 427.122Z" fill="#A5A9AF"/>
<path d="M519.321 477.219C585.029 466.668 648.226 446.544 706.598 416.607C710.519 414.586 715.939 410.382 720.884 407.711C707.041 400.491 693.197 393.271 679.354 386.051C646.286 368.794 613.22 351.535 580.194 334.331C569.203 328.615 556.001 315.121 556.253 301.899C556.494 288.867 569.335 288.486 579.022 293.491C619.827 314.761 660.54 336.02 701.345 357.29C726.765 370.55 791.926 397.091 775.407 436.655C769.476 450.838 749.618 457.689 737.039 464.051C717.928 473.749 698.232 482.421 678.131 490.086C637.794 505.352 595.876 516.234 552.81 523.173C540.094 525.224 527.466 516.576 519.75 505.822C515.375 499.707 506.372 479.28 519.327 477.216L519.321 477.219Z" fill="#A5A9AF"/>
</svg>
